<?xml version="1.0" encoding="UTF-8" standalone="no"?>
<!-- Created with Inkscape (http://www.inkscape.org/) -->

<svg
   xmlns:dc="http://purl.org/dc/elements/1.1/"
   xmlns:cc="http://creativecommons.org/ns#"
   xmlns:rdf="http://www.w3.org/1999/02/22-rdf-syntax-ns#"
   xmlns:svg="http://www.w3.org/2000/svg"
   xmlns="http://www.w3.org/2000/svg"
   xmlns:sodipodi="http://sodipodi.sourceforge.net/DTD/sodipodi-0.dtd"
   xmlns:inkscape="http://www.inkscape.org/namespaces/inkscape"
   width="195.05482mm"
   height="47.511658mm"
   viewBox="0 0 195.05482 47.511658"
   version="1.1"
   id="svg8"
   inkscape:version="0.92.1 r15371"
   sodipodi:docname="logo.svg">
  <defs      id="defs2" />
    <style>
        
   .path{
        stroke: white;
        stroke-linecap: butt;   
        fill: yellow;
        }
        
     

   
    </style>
  <sodipodi:namedview
     id="base"
     pagecolor="#ffffff"
     bordercolor="#666666"
     borderopacity="1.0"
     inkscape:pageopacity="0.0"
     inkscape:pageshadow="2"
     inkscape:zoom="0.49497475"
     inkscape:cx="382.31428"
     inkscape:cy="-156.99588"
     inkscape:document-units="mm"
     inkscape:current-layer="layer1"
     showgrid="false"
     inkscape:window-width="1920"
     inkscape:window-height="986"
     inkscape:window-x="-11"
     inkscape:window-y="-11"
     inkscape:window-maximized="1"
     fit-margin-top="0"
     fit-margin-left="0"
     fit-margin-right="0"
     fit-margin-bottom="0" />
  <metadata
     id="metadata5">
    <rdf:RDF>
      <cc:Work
         rdf:about="">
        <dc:format>image/svg+xml</dc:format>
        <dc:type
           rdf:resource="http://purl.org/dc/dcmitype/StillImage" />
        <dc:title></dc:title>
      </cc:Work>
    </rdf:RDF>
  </metadata>
  <g 
     inkscape:label="Layer 1"
     inkscape:groupmode="layer"
     id="layer1"
     transform="translate(-4.6793468,-59.783181)">
    <g 
       aria-label="WhatUpDog"
       style="font-style:normal;font-weight:normal;font-size:49.67970657px;line-height:1.25;font-family:sans-serif;letter-spacing:0px;word-spacing:0px;fill:#000000;fill-opacity:1;stroke:none;stroke-width:1.24199259"
       id="text3682">
     <path class="path"
         d="m 35.373177,83.999239 q -1.291753,3.62572 -4.022051,11.904684 -1.189,3.845904 -3.155989,10.642297 h -5.269768 q -0.733951,-3.0826 -2.642224,-10.524865 -1.203679,3.831223 -3.244063,10.524865 H 11.842709 Q 10.903251,103.18472 8.6280032,95.56631 7.2922124,91.382786 4.6793468,83.999239 H 14.690439 q 0.308259,1.438542 1.086247,4.653248 l 1.555976,5.871609 q 0.425692,-1.218361 1.262396,-4.242239 -0.689914,-2.568827 -1.761483,-6.282618 h 9.100993 q 0.234864,1.409187 0.777988,4.565177 0.396334,2.099096 1.086247,5.95968 l 1.511939,-5.989041 q 0.411013,-1.702766 0.954137,-4.535816 z"
         style="font-style:normal;font-variant:normal;font-weight:normal;font-stretch:normal;font-family:'Showcard Gothic';-inkscape-font-specification:'Showcard Gothic';stroke-width:0.75156575"
         id="path3835"
         inkscape:connector-curvature="0" />
     <path class="path"
         d="m 58.492633,83.999239 q -0.249543,3.61104 -0.660555,11.757892 -0.117433,3.875265 -0.411013,10.789089 h -7.4863 l -0.16147,-4.93216 q -0.264222,0.0881 -1.071568,0.4257 -0.954136,0.41101 -1.35047,0.66055 l -0.763309,-1.80552 q -0.234864,-0.58716 -0.777988,-1.65873 l -0.14679,7.31016 H 37.398882 L 36.97319,95.757131 Q 36.841079,91.544253 36.312635,83.999239 h 10.304671 l -0.689914,13.886355 q 1.071569,0.102751 2.055063,0.0587 0.631198,-0.0147 1.702766,-0.117431 l -0.74863,-13.827621 z"
         style="font-style:normal;font-variant:normal;font-weight:normal;font-stretch:normal;font-family:'Showcard Gothic';-inkscape-font-specification:'Showcard Gothic';stroke-width:0.75156575"
         id="path3837"
         inkscape:connector-curvature="0" />
     <path class="path"
         d="m 77.634072,106.54622 h -8.02942 l -0.543128,-1.95231 q -0.337614,0.13211 -1.688086,0.89542 -0.866062,0.5578 -1.922951,1.48258 l -0.836704,-1.77616 q -0.249544,-0.52845 -0.719272,-1.48259 l -0.792667,2.83306 h -4.256917 q 0.939458,-3.62572 2.906447,-11.963408 1.203679,-5.578025 2.011025,-10.583573 h 8.822089 q 0.411016,2.304609 2.245894,10.730365 1.012853,4.403705 2.80369,11.816616 z M 68.37161,101.7315 q -0.249543,-0.77799 -0.880741,-2.524795 -0.381655,-0.968817 -1.159641,-2.671584 -0.337618,0.851387 -1.056889,2.789016 -0.396334,1.115603 -0.939458,3.038563 0.440371,0 1.996347,-0.17615 0.939459,-0.13212 2.040382,-0.45505 z"
         style="font-style:normal;font-variant:normal;font-weight:normal;font-stretch:normal;font-family:'Showcard Gothic';-inkscape-font-specification:'Showcard Gothic';stroke-width:0.75156575"
         id="path3839"
         inkscape:connector-curvature="0" />
     <path class="path"
         d="m 96.10028,83.999239 -0.42569,9.233106 q -0.572482,-0.08808 -1.834878,-0.220188 -0.77799,-0.04405 -2.524792,-0.08808 -0.08807,0.866067 -0.308259,4.183524 -0.161466,3.214709 -0.528441,9.438619 h -7.10465 q -0.117431,-2.96517 -0.440371,-9.321188 -0.146786,-2.201853 -0.308258,-4.300955 l -2.319285,0.08808 -2.099101,0.220188 -0.366975,-9.233106 z"
         style="font-style:normal;font-variant:normal;font-weight:normal;font-stretch:normal;font-family:'Showcard Gothic';-inkscape-font-specification:'Showcard Gothic';stroke-width:0.75156575"
         id="path3841"
         inkscape:connector-curvature="0" />
     <path class="path"
         d="m 119.78662,59.783181 -0.33762,9.497317 q -0.14679,4.066095 -0.14679,12.301014 -3.75782,1.350472 -7.66244,1.350472 -4.81473,0 -7.32484,-1.922955 -2.12846,-1.62937 -3.0092,-5.078932 -0.51376,-1.981667 -0.96881,-7.251436 -0.440375,-4.873431 -0.543126,-8.89548 h 9.467966 q -0.0734,1.937625 -0.17615,6.311976 -0.044,2.436714 0.0293,6.913816 0.0147,3.405528 0.58716,4.594526 0.60184,1.262394 2.40736,1.262394 0.51377,0 1.14496,-0.293579 0,-3.023872 -0.17614,-9.614749 -0.1468,-3.302779 -0.54313,-9.174384 z"
         style="font-style:normal;font-variant:normal;font-weight:normal;font-stretch:normal;font-family:'Showcard Gothic';-inkscape-font-specification:'Showcard Gothic';stroke-width:0.75156575"
         id="path3843"
         inkscape:connector-curvature="0" />
     <path class="path"
         d="m 140.40916,72.353051 q 0,4.168838 -2.67158,6.678952 -2.6569,2.495428 -7.06061,2.495428 l -0.17614,4.477108 h -8.08815 l -0.42569,-10.935868 q -0.19082,-4.227559 -0.60184,-11.611121 2.28993,-0.455049 6.70832,-0.455049 5.38719,0 8.63126,2.157821 3.68443,2.45141 3.68443,7.192729 z m -6.09179,2.466077 q 0,-2.289932 -2.71562,-2.289932 -0.32294,0 -0.66055,0.04405 l -0.14679,5.137661 q 3.52296,-0.117431 3.52296,-2.891764 z"
         style="font-style:normal;font-variant:normal;font-weight:normal;font-stretch:normal;font-family:'Showcard Gothic';-inkscape-font-specification:'Showcard Gothic';stroke-width:0.75156575"
         id="path3845"
         inkscape:connector-curvature="0" />
     <path class="path"
         d="m 158.11915,95.448872 q 0,5.299128 -3.28811,8.337688 -3.39085,3.15599 -9.55604,3.15599 -3.96333,0 -6.12115,-0.39633 L 138.75752,95.6397 q -0.19083,-4.198198 -0.68991,-11.581745 3.18534,-0.455049 6.64959,-0.455049 6.17987,0 9.67347,2.877089 3.72848,3.082594 3.72848,8.968877 z m -6.0184,1.805524 q 0,-2.157818 -1.39451,-3.185351 -1.15964,-0.85138 -2.96516,-0.777984 l -0.20551,9.203739 q 1.87892,-0.11743 3.06792,-1.21835 1.49726,-1.365151 1.49726,-4.022054 z"
         style="font-style:normal;font-variant:normal;font-weight:normal;font-stretch:normal;font-family:'Showcard Gothic';-inkscape-font-specification:'Showcard Gothic';stroke-width:0.75156575"
         id="path3847"
         inkscape:connector-curvature="0" />
     <path class="path" 
         d="m 178.94868,94.788319 q 0,5.181696 -2.67158,8.763381 -2.80369,3.74314 -7.17805,3.74314 -4.50645,0 -7.29547,-3.7725 -2.62754,-3.552325 -2.62754,-8.734021 0,-5.533989 2.86241,-8.689979 2.70093,-2.965163 7.0606,-2.965163 4.28628,0 6.98722,2.979843 2.86241,3.170665 2.86241,8.675299 z m -7.06061,2.583508 q 0,-4.080766 -2.75965,-4.080766 -2.68627,0 -2.68627,4.110121 0,1.644051 0.70459,3.067918 0.79268,1.60001 1.95231,1.60001 1.13029,0 1.99635,-1.62937 0.79267,-1.482578 0.79267,-3.067913 z"
         style="font-style:normal;font-variant:normal;font-weight:normal;font-stretch:normal;font-family:'Showcard Gothic';-inkscape-font-specification:'Showcard Gothic';stroke-width:0.75156575"
         id="path3849"
         inkscape:connector-curvature="0" />
     <path class="path"
         d="m 199.73417,96.902096 q -0.14679,1.247715 -0.44037,4.711964 -0.14679,2.06975 -0.2789,4.9028 -1.96699,0.57248 -5.7395,0.57248 -5.60739,0 -9.11567,-2.52479 -4.13948,-3.00921 -4.13948,-8.954205 0,-5.695462 3.62571,-8.895488 3.40554,-3.009199 8.96889,-3.009199 2.0991,0 4.50645,0.322939 l 0.80735,9.262464 q -0.96881,-0.366981 -2.75966,-0.366981 -2.27524,0 -4.11012,1.394508 -2.05506,1.570655 -2.05506,3.992696 0,2.289926 1.7468,3.537646 1.4679,1.05689 3.39086,0.99817 l -0.23487,-2.950481 q -0.0881,-0.910102 -0.39633,-2.994523 z"
         style="font-style:normal;font-variant:normal;font-weight:normal;font-stretch:normal;font-family:'Showcard Gothic';-inkscape-font-specification:'Showcard Gothic';stroke-width:0.75156575"
         id="path3851"
         inkscape:connector-curvature="0" />
    </g>
  </g>
</svg>
