<!--?xml version="1.0" encoding="utf-8"?-->
<!-- Generator: Adobe Illustrator 16.0.0, SVG Export Plug-In . SVG Version: 6.00 Build 0)  -->

<svg version="1.1" id="Layer_1" xmlns="http://www.w3.org/2000/svg" xmlns:xlink="http://www.w3.org/1999/xlink" x="0px" y="0px" width="470.04px" height="117.004px" viewBox="0 0 470.04 117.004" enable-background="new 0 0 470.04 117.004" xml:space="preserve">
<g>
	<path stroke="#6CBE45" stroke-width="2" stroke-miterlimit="10" d="M84.508,43.693c-2.077,0.477-4.132,1.125-6.165,1.947
		c-2.034,0.822-4.013,1.784-5.937,2.887c-1.925,1.103-3.807,2.315-5.645,3.634c-1.839,1.319-3.601,2.692-5.288,4.12
		c-2.509,2.033-4.899,4.163-7.17,6.391c-2.271,2.229-4.423,4.597-6.456,7.105c-1.428,1.774-2.931,3.742-4.51,5.904
		c-1.58,2.164-3.147,4.358-4.704,6.586c-1.558,2.229-3.061,4.392-4.51,6.489c-1.45,2.099-2.758,3.946-3.926,5.548
		c-0.477,0.648-1.135,0.876-1.979,0.681c-0.843-0.194-1.645-0.616-2.4-1.265c-0.758-0.649-1.363-1.396-1.817-2.239
		c-0.455-0.844-0.552-1.59-0.292-2.238c1.168-2.897,2.292-5.742,3.374-8.532c1.081-2.79,2.336-5.613,3.763-8.468l0.454-0.844
		c-1.816,2.293-3.666,4.574-5.547,6.846c-1.882,2.271-3.926,4.574-6.132,6.91c-0.996,1.038-2.001,2.034-3.017,2.984
		c-1.017,0.952-2.109,1.817-3.277,2.596c-0.909,0.606-1.817,1.038-2.725,1.298c-0.909,0.26-1.731,0.346-2.466,0.26
		c-0.736-0.088-1.374-0.324-1.914-0.714c-0.542-0.39-0.898-0.908-1.071-1.558c-0.217-0.691-0.217-1.372,0-2.044
		c0.216-0.67,0.497-1.286,0.844-1.849c0.475-0.735,0.94-1.449,1.395-2.142c0.454-0.691,0.918-1.405,1.395-2.142
		c0.951-1.427,1.914-2.844,2.887-4.25c0.974-1.405,1.957-2.822,2.953-4.25c0.821-1.21,1.708-2.508,2.66-3.893
		c0.951-1.384,1.892-2.812,2.822-4.283c0.93-1.47,1.795-2.952,2.596-4.444c0.8-1.492,1.438-2.93,1.914-4.314
		c0.432-1.341,0.422-2.207-0.032-2.596c-0.455-0.39-1.136-0.454-2.044-0.194c-0.909,0.259-1.925,0.801-3.05,1.622
		c-1.125,0.822-2.141,1.752-3.05,2.79c-1.255,1.427-2.379,2.963-3.374,4.606c-0.996,1.645-1.925,3.288-2.79,4.932
		c-0.173,0.347-0.379,0.865-0.616,1.557c-0.238,0.693-0.477,1.418-0.714,2.174c-0.238,0.758-0.433,1.504-0.584,2.239
		c-0.152,0.735-0.227,1.341-0.227,1.816c-0.736-0.26-1.363-0.67-1.882-1.232s-0.919-1.201-1.2-1.914
		c-0.282-0.714-0.487-1.449-0.617-2.207c-0.129-0.756-0.173-1.502-0.129-2.238c0.042-1.644,0.389-3.233,1.038-4.769
		s1.47-2.974,2.465-4.315c0.735-1.038,1.6-2.054,2.596-3.05c0.995-0.994,2.076-1.914,3.244-2.758
		c1.168-0.843,2.401-1.567,3.699-2.173s2.595-0.995,3.893-1.168c1.168-0.13,2.239-0.011,3.212,0.356
		c0.973,0.368,1.827,0.908,2.563,1.622c0.735,0.714,1.33,1.568,1.784,2.563c0.455,0.995,0.747,2.033,0.876,3.114
		c0.13,1.125-0.011,2.391-0.421,3.796c-0.412,1.406-0.996,2.877-1.752,4.412c-0.757,1.536-1.633,3.114-2.628,4.736
		c-0.996,1.622-2.023,3.212-3.082,4.77c-1.061,1.558-2.099,3.05-3.115,4.478c-1.017,1.427-1.914,2.725-2.693,3.893
		c2.985-2.768,5.634-5.569,7.949-8.402c2.313-2.833,4.509-5.613,6.586-8.338c2.076-2.726,4.13-5.363,6.164-7.916
		c2.033-2.552,4.218-4.909,6.554-7.073c0.302-0.259,0.778-0.519,1.427-0.778s1.287-0.443,1.914-0.552
		c0.626-0.107,1.125-0.086,1.493,0.065c0.367,0.151,0.421,0.486,0.162,1.006c-0.303,0.605-0.79,1.589-1.46,2.952
		c-0.671,1.362-1.438,2.92-2.304,4.672c-0.866,1.752-1.795,3.645-2.79,5.677c-0.996,2.034-1.958,4.023-2.887,5.97
		c-0.931,1.947-1.817,3.796-2.66,5.548c-0.844,1.752-1.525,3.234-2.044,4.445c-0.217,0.563-0.444,1.125-0.682,1.687
		c-0.238,0.563-0.465,1.125-0.681,1.688c0.865-1.341,1.827-2.769,2.887-4.283c1.06-1.514,2.142-3.038,3.245-4.574
		c1.103-1.535,2.206-3.038,3.309-4.51c1.103-1.47,2.13-2.832,3.082-4.088c1.687-2.248,3.428-4.52,5.224-6.813
		c1.794-2.293,3.698-4.487,5.71-6.586c2.011-2.098,4.141-4.033,6.391-5.808c2.249-1.773,4.714-3.244,7.397-4.412
		c1.125-0.519,2.336-0.93,3.634-1.233c1.297-0.302,2.584-0.454,3.86-0.454c1.275,0,2.52,0.194,3.731,0.584
		C82.409,42.136,83.512,42.785,84.508,43.693z" class="JkwFvWUs_0"></path>
	<path stroke="#6CBE45" stroke-width="2" stroke-miterlimit="10" d="M82.302,75.422c1.34-0.562,2.033-0.216,2.076,1.039
		c-1.515,2.941-3.277,5.71-5.288,8.305c-2.012,2.596-4.12,4.716-6.327,6.359c-0.389,0.347-0.898,0.639-1.524,0.876
		c-0.628,0.237-1.288,0.41-1.979,0.519c-0.692,0.107-1.374,0.151-2.043,0.13c-0.671-0.022-1.266-0.141-1.785-0.356
		c-1.125-0.432-1.979-1.06-2.563-1.882c-0.584-0.821-0.963-1.741-1.135-2.758c-0.173-1.016-0.185-2.054-0.033-3.114
		c0.151-1.06,0.399-2.065,0.746-3.018c0.865-2.466,1.968-4.822,3.31-7.072c1.34-2.249,2.703-4.478,4.087-6.684
		c-0.347,0.217-0.66,0.454-0.94,0.714c-0.282,0.26-0.574,0.52-0.876,0.778c-0.693,0.606-1.839,1.678-3.439,3.212
		c-1.601,1.536-3.418,3.396-5.451,5.58c-2.034,2.186-4.153,4.586-6.359,7.203s-4.239,5.311-6.099,8.078
		c-0.476,0-0.909-0.108-1.298-0.324c-0.389-0.218-0.724-0.487-1.006-0.812c-0.281-0.324-0.508-0.659-0.681-1.006
		c-0.172-0.346-0.281-0.626-0.324-0.844c-0.13-0.519-0.01-1.33,0.357-2.433c0.368-1.104,0.843-2.304,1.427-3.602
		s1.223-2.605,1.914-3.926c0.692-1.318,1.276-2.433,1.752-3.341c1.384-2.596,2.79-5.137,4.218-7.625
		c1.427-2.486,2.833-4.984,4.217-7.494c0.26-0.476,0.747-1.33,1.46-2.563c0.714-1.233,1.493-2.552,2.336-3.958
		c0.844-1.405,1.665-2.735,2.466-3.991c0.8-1.254,1.438-2.162,1.914-2.725c0.779-0.951,1.644-1.632,2.596-2.044
		c0.951-0.411,1.881-0.649,2.79-0.714c0.908-0.065,1.773,0,2.595,0.195c0.821,0.194,1.514,0.421,2.077,0.681
		c-0.217,0.259-0.747,0.866-1.59,1.817c-0.844,0.952-1.698,2.077-2.563,3.374c-2.553,3.851-5.116,7.938-7.689,12.264
		c-2.574,4.326-5.181,8.652-7.819,12.978c0.649-0.735,1.319-1.46,2.011-2.174c0.691-0.714,1.384-1.438,2.077-2.174
		c1.384-1.384,2.757-2.778,4.12-4.185c1.363-1.405,2.779-2.735,4.25-3.991c0.39-0.346,0.865-0.734,1.428-1.168
		c0.562-0.432,1.135-0.854,1.719-1.265s1.146-0.768,1.687-1.071c0.541-0.302,0.962-0.496,1.266-0.584
		c0.691-0.129,1.373-0.14,2.043-0.032c0.67,0.108,1.276,0.314,1.817,0.616c0.541,0.304,0.974,0.66,1.298,1.071
		s0.487,0.833,0.487,1.265c0,0.088-0.206,0.498-0.617,1.233c-0.412,0.735-0.952,1.665-1.622,2.79
		c-0.671,1.125-1.417,2.379-2.238,3.764c-0.822,1.385-1.623,2.747-2.401,4.087c-0.779,1.342-1.504,2.618-2.174,3.829
		c-0.671,1.211-1.179,2.185-1.525,2.92c-0.606,1.211-0.919,2.238-0.941,3.082c-0.022,0.843,0.14,1.46,0.487,1.849
		c0.346,0.39,0.854,0.563,1.525,0.52c0.67-0.043,1.416-0.367,2.238-0.974c1.773-1.254,3.514-2.888,5.224-4.898
		C79.695,79.737,81.134,77.629,82.302,75.422z" class="JkwFvWUs_1"></path>
	<path stroke="#6CBE45" stroke-width="2" stroke-miterlimit="10" d="M114.355,63.483c-0.477,0.648-1.049,1.492-1.719,2.53
		c-0.671,1.038-1.374,2.164-2.109,3.374c-0.736,1.212-1.46,2.466-2.174,3.764s-1.353,2.53-1.914,3.698
		c-1.168,2.423-2.076,4.456-2.725,6.1c-0.649,1.645-0.822,2.704-0.519,3.18c0.129,0.217,0.356,0.313,0.681,0.292
		c0.324-0.021,0.681-0.098,1.07-0.228c0.39-0.13,0.747-0.292,1.071-0.486c0.325-0.195,0.552-0.335,0.681-0.422
		c0.951-0.605,1.795-1.308,2.531-2.109c0.735-0.8,1.428-1.632,2.076-2.498c0.605-0.821,1.189-1.687,1.752-2.595
		c0.562-0.909,1.081-1.795,1.558-2.661c0.519-0.129,0.962-0.129,1.33,0c0.367,0.13,0.616,0.477,0.746,1.039
		c-0.606,1.125-1.19,2.228-1.752,3.309c-0.563,1.082-1.211,2.142-1.947,3.18c-0.692,1.038-1.417,2.034-2.173,2.984
		c-0.757,0.952-1.568,1.86-2.434,2.726c-0.822,0.822-1.719,1.547-2.692,2.174c-0.974,0.627-2.066,0.919-3.277,0.876
		c-1.211,0-2.293-0.346-3.244-1.038c-0.952-0.691-1.645-1.601-2.077-2.726c-0.217-0.519-0.368-1.103-0.454-1.752
		c-0.692,0.996-1.428,1.904-2.206,2.726c-0.779,0.822-1.666,1.515-2.661,2.076c-1.385,0.778-2.833,1.103-4.347,0.974
		c-1.515-0.13-2.833-0.714-3.958-1.752c-1.082-0.995-1.817-2.174-2.206-3.537c-0.39-1.362-0.584-2.735-0.584-4.12
		c0.043-1.729,0.324-3.438,0.843-5.126c0.519-1.687,1.201-3.309,2.044-4.866c0.844-1.558,1.817-3.018,2.92-4.38
		s2.281-2.605,3.537-3.73c1.21-1.125,2.584-2.033,4.12-2.726c1.535-0.691,3.125-0.995,4.769-0.908c1.6,0.087,3.006,0.573,4.218,1.46
		c1.21,0.887,2.098,2.066,2.66,3.536c0.519-0.605,1.113-1.157,1.784-1.654c0.67-0.497,1.373-0.876,2.109-1.136
		c0.779-0.303,1.611-0.432,2.498-0.39C113.067,62.684,113.792,62.964,114.355,63.483z M93.851,81.262
		c1.946-1.384,3.698-3.156,5.256-5.32c1.557-2.162,2.573-4.455,3.049-6.878c0.216-0.908,0.195-1.806-0.065-2.692
		c-0.259-0.887-0.931-1.417-2.011-1.59c-0.866-0.13-1.666,0.043-2.401,0.519c-0.736,0.477-1.406,0.996-2.011,1.558
		c-1.86,1.816-3.364,3.894-4.51,6.229c-1.146,2.335-2.022,4.759-2.628,7.267c-0.563,2.51-0.444,4.164,0.357,4.964
		c0.8,0.801,1.892,0.833,3.277,0.098c0.908-0.476,1.762-1.06,2.563-1.752c0.8-0.691,1.567-1.405,2.303-2.142
		c-0.606,0.13-1.223,0.206-1.849,0.228C94.554,81.771,94.11,81.608,93.851,81.262z" class="JkwFvWUs_2"></path>
	<path stroke="#6CBE45" stroke-width="2" stroke-miterlimit="10" d="M134.209,50.441c0.172,0.606,0.172,1.114,0,1.524
		c-0.173,0.412-0.39,0.876-0.649,1.396l-0.779,1.557c0.909,0.088,1.687,0.218,2.336,0.39c0.865,0.26,1.611,0.704,2.239,1.33
		c0.626,0.628,1.027,1.374,1.2,2.238c0.13,0.649,0.14,1.061,0.033,1.233c-0.108,0.173-0.444,0.303-1.006,0.39
		c-0.519,0.087-1.168,0.194-1.947,0.324c-0.778,0.13-1.557,0.238-2.336,0.324c-0.778,0.087-1.492,0.173-2.141,0.26
		s-1.103,0.151-1.362,0.194h-0.13l-1.493,3.114l-5.515,11.096c-0.173,0.347-0.498,0.984-0.973,1.914
		c-0.477,0.931-0.974,1.958-1.493,3.082c-1.038,2.294-1.547,3.991-1.525,5.094c0.021,1.104,0.4,1.72,1.136,1.85
		c0.735,0.13,1.729-0.205,2.985-1.006c1.254-0.8,2.595-1.979,4.023-3.536c0.995-1.125,1.903-2.304,2.725-3.536
		c0.821-1.233,1.644-2.649,2.466-4.251c1.297-0.691,2.011-0.346,2.141,1.039c-0.692,1.297-1.428,2.595-2.206,3.893
		c-0.779,1.298-1.633,2.553-2.563,3.764c-0.931,1.212-1.914,2.368-2.953,3.472c-1.038,1.103-2.164,2.065-3.374,2.887
		c-0.996,0.736-2.173,1.256-3.536,1.558s-2.693,0.281-3.991-0.064c-0.951-0.217-1.752-0.691-2.4-1.428
		c-0.649-0.735-1.081-1.579-1.298-2.53c-0.26-0.995-0.357-2.012-0.292-3.05s0.238-2.077,0.519-3.115
		c0.282-1.038,0.616-2.044,1.006-3.017c0.389-0.974,0.778-1.914,1.168-2.823c0.995-2.335,2.109-4.596,3.341-6.78
		c1.233-2.184,2.476-4.38,3.731-6.586c-1.341,0.174-2.53,0.314-3.568,0.422c-1.039,0.108-1.731,0.162-2.077,0.162
		c-0.217-0.432-0.314-0.94-0.292-1.524c0.021-0.584,0.13-1.157,0.325-1.72c0.194-0.562,0.454-1.081,0.778-1.558
		c0.325-0.476,0.659-0.843,1.006-1.103c0.951-0.735,2.044-1.254,3.277-1.558c1.233-0.302,2.411-0.519,3.536-0.648
		c0.216,0,0.432-0.011,0.649-0.033c0.216-0.021,0.432-0.054,0.649-0.097l1.882-3.569c0.302-0.519,0.573-1.048,0.811-1.59
		c0.237-0.54,0.594-1.005,1.07-1.395c0.346-0.259,0.789-0.346,1.33-0.259c0.541,0.087,1.06,0.249,1.558,0.486
		c0.497,0.238,0.93,0.53,1.298,0.876C133.895,49.879,134.122,50.182,134.209,50.441z" class="JkwFvWUs_3"></path>
</g>
<g>
	<path stroke="#6CBE45" stroke-width="2" stroke-miterlimit="10" d="M159.956,43.105c-0.616,1.751-0.947,3.147-0.994,4.187
		c-0.048,1.041,0.094,1.764,0.426,2.165c0.331,0.402,0.827,0.496,1.49,0.283c0.662-0.213,1.395-0.697,2.2-1.454
		c0.852-0.804,1.797-1.846,2.839-3.123c1.04-1.277,2.046-2.614,3.016-4.01c0.969-1.395,1.869-2.72,2.697-3.975
		c0.827-1.253,1.455-2.259,1.881-3.016c0.52-0.236,1.017-0.295,1.49-0.177c0.473,0.119,0.733,0.58,0.781,1.384
		c-0.568,1.089-1.29,2.331-2.165,3.726c-0.876,1.396-1.799,2.815-2.768,4.258c-0.97,1.443-1.952,2.851-2.945,4.223
		c-0.993,1.373-1.94,2.58-2.838,3.619c-0.521,0.568-1.077,1.146-1.668,1.74c-0.592,0.59-1.242,1.123-1.952,1.596
		c-0.71,0.473-1.444,0.816-2.2,1.029c-0.757,0.213-1.562,0.201-2.413-0.035c-1.183-0.283-2.177-0.852-2.98-1.703
		c-0.805-0.852-1.373-1.846-1.704-2.98c-0.189-0.711-0.284-1.549-0.284-2.52c0-0.969,0.059-1.963,0.177-2.981
		c0.118-1.017,0.295-1.998,0.532-2.945c0.236-0.946,0.497-1.75,0.781-2.413c-0.379,0.521-0.793,1.1-1.242,1.739
		c-0.45,0.639-0.912,1.277-1.384,1.916c-0.473,0.639-0.922,1.254-1.348,1.845c-0.426,0.592-0.829,1.1-1.207,1.526
		c-0.616,0.709-1.325,1.526-2.129,2.449c-0.805,0.921-1.667,1.763-2.59,2.519c-0.922,0.756-1.905,1.324-2.945,1.703
		c-1.041,0.379-2.105,0.379-3.193,0c-1.089-0.332-1.976-0.922-2.662-1.773c-0.686-0.852-1.219-1.811-1.597-2.875
		c-0.379-1.065-0.615-2.165-0.709-3.3c-0.096-1.136-0.096-2.2,0-3.194c0.284-2.649,1.075-5.133,2.377-7.452
		c1.301-2.318,2.755-4.495,4.364-6.529c1.278-1.562,2.543-3.134,3.797-4.72c1.253-1.584,2.542-3.158,3.868-4.719
		c0.472-0.568,1.064-1.372,1.774-2.413c0.709-1.04,1.348-2.117,1.916-3.229c0.568-1.111,0.958-2.165,1.171-3.158
		c0.213-0.993,0.082-1.703-0.39-2.129c-0.426-0.426-0.899-0.626-1.419-0.603c-0.521,0.024-1.054,0.154-1.597,0.39
		c-0.544,0.237-1.065,0.532-1.562,0.887s-0.912,0.651-1.242,0.887c-2.98,2.083-5.464,4.684-7.452,7.807s-3.667,6.435-5.039,9.936
		c-0.095,0.284-0.225,0.686-0.39,1.206c-0.167,0.521-0.308,1.077-0.426,1.668c-0.119,0.592-0.19,1.16-0.213,1.703
		c-0.024,0.544,0.035,0.983,0.177,1.313c-1.277-0.142-2.307-0.603-3.087-1.384c-0.781-0.781-1.373-1.727-1.774-2.839
		c-0.403-1.111-0.616-2.271-0.639-3.478c-0.024-1.207,0.082-2.307,0.319-3.3c0.568-2.413,1.584-4.625,3.052-6.636
		c1.466-2.011,3.169-3.773,5.11-5.288c1.277-0.994,2.743-1.939,4.4-2.839c1.656-0.898,3.371-1.584,5.146-2.058
		c1.774-0.472,3.548-0.614,5.323-0.426c1.774,0.19,3.442,0.852,5.003,1.987c0.898,0.709,1.443,1.621,1.632,2.732
		c0.188,1.112,0.236,2.189,0.142,3.229c-0.142,1.231-0.415,2.413-0.816,3.548c-0.402,1.136-0.887,2.236-1.455,3.3
		c-0.567,1.064-1.183,2.106-1.845,3.123c-0.663,1.018-1.325,2.047-1.987,3.087c-0.757,1.183-1.55,2.342-2.377,3.478
		c-0.829,1.135-1.645,2.271-2.449,3.407c-0.947,1.373-1.881,2.744-2.803,4.116c-0.923,1.373-1.81,2.768-2.662,4.187
		c-0.189,0.379-0.521,0.994-0.993,1.845c-0.474,0.852-0.887,1.751-1.242,2.697c-0.355,0.947-0.521,1.834-0.497,2.662
		c0.023,0.828,0.437,1.383,1.242,1.668c0.614,0.189,1.336,0.047,2.165-0.426c0.827-0.473,1.679-1.125,2.555-1.953
		c0.875-0.827,1.75-1.774,2.626-2.838c0.875-1.065,1.703-2.117,2.484-3.158c0.78-1.041,1.466-1.987,2.058-2.839
		c0.591-0.852,1.052-1.491,1.384-1.917c0.188-0.284,0.591-0.898,1.207-1.845c0.614-0.946,1.324-2.104,2.129-3.478
		c0.804-1.372,1.691-2.862,2.662-4.471c0.969-1.608,1.939-3.181,2.91-4.719c0.969-1.537,1.881-2.992,2.732-4.365
		c0.852-1.372,1.584-2.484,2.2-3.335c1.04-1.514,2.14-3.004,3.3-4.471c1.159-1.466,2.472-2.744,3.939-3.833
		c0.662-0.52,1.359-0.91,2.094-1.171c0.733-0.26,1.501-0.343,2.307-0.249c0.188,0,0.436,0.06,0.744,0.178
		c0.308,0.119,0.615,0.248,0.923,0.39s0.579,0.319,0.816,0.532c0.236,0.213,0.378,0.415,0.426,0.603
		c-1.703,2.413-3.513,5.063-5.429,7.949c-1.917,2.887-3.809,5.903-5.678,9.049c-1.87,3.147-3.632,6.352-5.287,9.617
		C162.415,36.718,161.043,39.936,159.956,43.105z" class="JkwFvWUs_4"></path>
	<path stroke="#6CBE45" stroke-width="2" stroke-miterlimit="10" d="M196.292,40.054c-1.846,3.36-3.633,5.938-5.359,7.736
		c-1.728,1.798-3.323,3.052-4.79,3.761s-2.803,1.004-4.01,0.887c-1.206-0.117-2.188-0.365-2.945-0.744
		c-1.088-0.521-2.022-1.23-2.803-2.129c-0.781-0.899-1.337-1.963-1.668-3.194l-2.342,4.612l-3.903,7.594
		c-0.142,0.285-0.414,0.863-0.816,1.74c-0.401,0.875-0.839,1.855-1.313,2.945c-0.473,1.088-0.911,2.188-1.313,3.299
		c-0.401,1.111-0.65,2.023-0.745,2.732c-0.71-0.283-1.395-0.639-2.058-1.064c-0.662-0.426-1.253-0.912-1.774-1.455
		c-0.52-0.543-0.922-1.111-1.207-1.703c-0.284-0.592-0.378-1.195-0.284-1.809c0.237-1.232,0.651-2.449,1.242-3.656
		c0.592-1.205,1.148-2.354,1.668-3.441c1.419-2.98,2.922-5.914,4.507-8.8c1.585-2.886,3.135-5.795,4.648-8.729
		c1.798-3.359,3.536-6.73,5.216-10.113c1.679-3.382,3.252-6.849,4.719-10.397c0.095-0.142,0.485-0.236,1.171-0.284
		c0.686-0.046,1.372,0.048,2.059,0.284c0.686,0.237,1.229,0.663,1.633,1.277c0.4,0.615,0.365,1.562-0.107,2.839l-1.277,3.193
		c0.946-1.04,1.952-1.987,3.017-2.838c1.064-0.852,2.235-1.585,3.514-2.2c0.945-0.426,2.057-0.626,3.334-0.604
		c1.277,0.024,2.318,0.367,3.123,1.029c0.852,0.663,1.49,1.455,1.916,2.377s0.662,1.928,0.711,3.016
		c0.141,2.225-0.166,4.554-0.924,6.991C198.374,35.643,197.427,37.925,196.292,40.054z M176.775,42.254
		c0.142,0.899,0.377,1.703,0.709,2.413c0.33,0.709,0.756,1.23,1.277,1.561c0.521,0.332,1.136,0.403,1.846,0.213
		c0.709-0.188,1.49-0.756,2.342-1.703c2.033-2.129,3.727-4.542,5.074-7.239c1.349-2.697,2.401-5.464,3.159-8.303
		c0.094-0.284,0.199-0.721,0.318-1.313c0.117-0.591,0.178-1.182,0.178-1.774c0-0.591-0.084-1.1-0.248-1.526
		c-0.166-0.426-0.486-0.614-0.959-0.568c-0.567,0.048-1.171,0.249-1.81,0.604s-1.277,0.781-1.916,1.277
		c-0.639,0.497-1.242,1.042-1.81,1.632c-0.567,0.592-1.064,1.125-1.49,1.597c-0.19,0.19-0.354,0.367-0.497,0.533
		c-0.143,0.166-0.283,0.344-0.426,0.532l-2.768,5.961L176.775,42.254z" class="JkwFvWUs_5"></path>
</g>
<g>
	<path stroke="#6CBE45" stroke-width="2" stroke-miterlimit="10" d="M201.86,49.506c0.072,2.164-0.274,4.293-1.036,6.389
		c-0.764,2.096-1.808,3.964-3.131,5.603c-0.593,0.69-1.285,1.366-2.074,2.027c-0.789,0.662-1.645,1.212-2.56,1.649
		c-0.916,0.438-1.85,0.699-2.8,0.783c-0.951,0.084-1.905-0.107-2.862-0.575c-1.044-0.514-1.797-1.207-2.258-2.08
		c-0.462-0.872-0.71-1.815-0.749-2.832c-0.037-1.015,0.111-2.036,0.449-3.063c0.335-1.026,0.757-1.953,1.267-2.777
		c1.196-1.819,2.685-3.421,4.465-4.806c1.78-1.383,3.61-2.556,5.488-3.52c1.566-0.794,3.227-1.477,4.985-2.046
		c1.758-0.568,3.567-0.993,5.427-1.272c1.86-0.28,3.727-0.382,5.599-0.31c1.871,0.075,3.685,0.356,5.435,0.845
		c1.479-0.841,2.994-1.439,4.548-1.793c1.021-0.192,2.058-0.263,3.115-0.212c1.058,0.052,2.085,0.334,3.086,0.846l-0.003,0.132
		c-1.324,0.008-2.554,0.239-3.691,0.693c-1.137,0.454-2.224,1.063-3.259,1.829c2.086,1.116,3.777,2.574,5.073,4.373
		c1.295,1.801,2.233,3.777,2.813,5.932c0.58,2.156,0.85,4.391,0.809,6.704c-0.042,2.314-0.335,4.546-0.879,6.691
		c-0.544,2.102-1.306,4.176-2.288,6.222c-0.983,2.046-2.149,3.977-3.5,5.791c-1.352,1.815-2.843,3.506-4.473,5.07
		c-1.631,1.565-3.346,2.94-5.142,4.125c-1.662,1.102-3.495,1.988-5.498,2.66c-2.003,0.674-4.015,0.805-6.032,0.396
		c-2.193-0.457-4.018-1.444-5.474-2.962c-1.459-1.518-2.669-3.216-3.632-5.095c-1.588,1.633-3.316,3.096-5.181,4.389
		c-1.866,1.295-3.865,2.197-5.997,2.713c-1.287,0.317-2.656,0.4-4.107,0.251c-1.452-0.15-2.738-0.683-3.86-1.595
		c-1.247-1.137-1.981-2.502-2.202-4.096c-0.221-1.595-0.12-3.223,0.301-4.888c0.42-1.664,1.038-3.29,1.854-4.877
		c0.814-1.588,1.657-2.965,2.528-4.132c1.235-1.642,2.684-3.024,4.347-4.147c1.661-1.122,3.532-1.743,5.608-1.863
		c1.678-0.086,3.169,0.264,4.47,1.049c1.302,0.787,2.441,1.811,3.422,3.072c1.244-1.951,2.498-3.856,3.762-5.719
		c1.265-1.86,2.561-3.7,3.891-5.516c1.376-1.947,2.795-3.826,4.256-5.639c1.462-1.813,3.03-3.532,4.708-5.163l2.512-2.312
		c-2.711-0.912-5.416-1.163-8.116-0.753c-2.082,0.296-4.084,0.913-6.006,1.853s-3.675,2.093-5.256,3.46
		c-0.77,0.685-1.483,1.415-2.144,2.19c-0.662,0.775-1.246,1.598-1.755,2.465c-0.929,1.695-1.173,2.936-0.73,3.718
		c0.441,0.785,1.51,0.76,3.21-0.076c0.714-0.333,1.387-0.744,2.02-1.234c0.631-0.489,1.239-1.014,1.828-1.57
		c1.042-0.985,1.986-2.073,2.836-3.264C200.125,52.05,200.985,50.805,201.86,49.506z M185.535,82.597
		c0.771-0.815,1.522-1.666,2.252-2.551c0.73-0.883,1.417-1.78,2.06-2.688c-0.332-0.759-0.664-1.518-0.995-2.277
		c-0.333-0.758-0.8-1.433-1.4-2.022c-0.644-0.635-1.417-1.009-2.317-1.122c-0.901-0.113-1.808-0.05-2.719,0.189
		c-0.909,0.239-1.769,0.603-2.576,1.087c-0.807,0.485-1.483,1.008-2.027,1.564c-0.546,0.604-1.086,1.404-1.621,2.403
		c-0.534,1.001-0.939,2.059-1.212,3.176c-0.273,1.116-0.359,2.217-0.256,3.301c0.102,1.083,0.519,1.966,1.25,2.646
		c0.259,0.229,0.562,0.38,0.913,0.456c0.35,0.075,0.724,0.108,1.122,0.097c0.398-0.011,0.784-0.066,1.163-0.166
		c0.377-0.1,0.699-0.19,0.966-0.271c1.069-0.367,2.043-0.892,2.922-1.573C183.937,84.164,184.762,83.414,185.535,82.597z
		 M221.612,57.724c-0.039-1.809-0.366-3.505-0.984-5.088c-0.618-1.582-1.618-2.922-2.998-4.019c-1.098,1.382-2.106,2.819-3.03,4.315
		s-1.776,2.874-2.561,4.131c-2.17,3.469-4.26,6.95-6.275,10.444c-2.015,3.496-4.235,6.863-6.662,10.104l-0.618,0.843l1.556,3.549
		c0.377,0.717,0.765,1.434,1.165,2.148c0.398,0.718,0.856,1.337,1.371,1.857c0.515,0.522,1.121,0.902,1.821,1.143
		c0.697,0.24,1.515,0.24,2.447,0.001c1.732-0.437,3.267-1.343,4.606-2.719c1.338-1.373,2.468-2.775,3.391-4.206
		c0.923-1.518,1.797-3.192,2.619-5.021c0.821-1.83,1.546-3.729,2.175-5.696c0.627-1.967,1.111-3.961,1.453-5.979
		C221.431,61.512,221.604,59.576,221.612,57.724z" class="JkwFvWUs_6"></path>
	<path stroke="#6CBE45" stroke-width="2" stroke-miterlimit="10" d="M250.305,63.211c0.578-0.205,1.286-0.229,2.119-0.074
		c1.271,0.3,2.288,0.989,3.053,2.068c0.764,1.08,1.283,2.219,1.559,3.417c0.387,1.951,0.354,3.946-0.099,5.984
		c-0.451,2.038-1.123,3.972-2.012,5.8c1.395,0.611,2.776,0.495,4.145-0.35c1.368-0.844,2.585-2.199,3.651-4.067
		c1.294-0.537,1.989-0.165,2.086,1.116c-1.484,2.649-3.294,4.684-5.427,6.102c-2.135,1.42-4.725,2.198-7.771,2.333
		c-0.73,0.907-1.517,1.801-2.356,2.681c-0.84,0.883-1.731,1.662-2.677,2.341c-0.944,0.681-1.965,1.236-3.058,1.67
		c-1.092,0.433-2.233,0.677-3.426,0.732c-1.457,0.048-2.772-0.198-3.949-0.737c-1.176-0.539-2.191-1.294-3.048-2.267
		c-0.854-0.972-1.529-2.082-2.024-3.331c-0.494-1.247-0.789-2.558-0.884-3.927c-0.09-1.547,0.02-3.098,0.327-4.655
		c0.308-1.557,0.778-3.077,1.414-4.559c0.638-1.481,1.413-2.872,2.332-4.17c0.917-1.298,1.941-2.46,3.072-3.488
		c1.13-0.982,2.376-1.809,3.74-2.477c1.363-0.668,2.797-1.048,4.298-1.14c0.752-0.066,1.555-0.033,2.412,0.101
		c0.856,0.134,1.632,0.387,2.328,0.759L250.305,63.211z M246.727,77.798c0.769-0.64,1.588-1.146,2.457-1.52
		c0.87-0.373,1.653-0.373,2.349-0.001c0.303,0.185,0.561,0.435,0.774,0.748c0.384-1.18,0.628-2.407,0.729-3.684
		s0.015-2.558-0.258-3.845c-0.201-0.754-0.504-1.37-0.909-1.845c-0.406-0.474-0.911-0.939-1.517-1.397
		c-0.791-0.065-1.542-0.02-2.252,0.137c-0.711,0.157-1.401,0.402-2.071,0.737c-1.118,0.542-2.178,1.362-3.177,2.459
		c-1.002,1.097-1.883,2.33-2.649,3.698c-0.766,1.368-1.4,2.796-1.904,4.28c-0.504,1.486-0.807,2.9-0.91,4.242
		c-0.104,1.343,0.007,2.537,0.332,3.581c0.323,1.046,0.942,1.802,1.855,2.269c1.086,0.603,2.363,0.671,3.831,0.204
		c1.469-0.466,2.885-1.452,4.25-2.96c-0.612-0.236-1.166-0.55-1.661-0.938c-0.497-0.388-0.869-0.873-1.118-1.453
		c-0.333-0.759-0.299-1.563,0.1-2.412C245.376,79.25,245.959,78.483,246.727,77.798z" class="JkwFvWUs_7"></path>
	<path stroke="#6CBE45" stroke-width="2" stroke-miterlimit="10" d="M298.88,62.563c-0.322,0.477-0.82,1.345-1.494,2.604
		c-0.675,1.261-1.454,2.75-2.338,4.468c-0.886,1.718-1.831,3.555-2.832,5.512c-1.003,1.957-1.97,3.839-2.9,5.643
		c-0.933,1.806-1.783,3.457-2.551,4.958c-0.77,1.5-1.363,2.642-1.782,3.424l-4.316,7.819c0.615,0.105,1.194,0.242,1.741,0.412
		s1.126,0.329,1.741,0.479c1.093,0.294,2.231,0.634,3.411,1.02c1.181,0.385,2.361,0.727,3.545,1.023
		c1.182,0.298,2.366,0.539,3.553,0.727c1.186,0.188,2.374,0.231,3.567,0.132c0.751-0.068,1.571-0.222,2.461-0.462
		c0.888-0.24,1.649-0.639,2.281-1.194c0.161,0.534,0.146,1.073-0.044,1.62c-0.192,0.546-0.482,1.078-0.87,1.597
		c-0.39,0.519-0.812,1.003-1.265,1.453c-0.454,0.451-0.882,0.804-1.286,1.057c-0.943,0.636-1.961,1.125-3.051,1.471
		c-1.09,0.344-2.222,0.577-3.393,0.701c-1.172,0.121-2.343,0.155-3.509,0.102c-1.168-0.056-2.302-0.163-3.398-0.325
		c-1.67-0.268-3.323-0.633-4.964-1.097c-1.642-0.464-3.271-0.961-4.888-1.49c-1.105,1.689-2.363,3.298-3.772,4.825
		c-1.409,1.525-3.031,2.771-4.865,3.736c-1.657,0.88-3.423,1.338-5.297,1.375c-1.875,0.036-3.586-0.342-5.129-1.134
		c-1.544-0.792-2.758-1.973-3.642-3.54c-0.882-1.568-1.16-3.495-0.832-5.778c0.376-2.416,1.274-4.276,2.7-5.582
		c1.425-1.307,3.116-2.219,5.07-2.738c1.954-0.521,4.044-0.738,6.269-0.654c2.226,0.083,4.326,0.307,6.3,0.669l3.165-6.792
		c-0.819,0.903-1.748,1.749-2.783,2.536c-1.037,0.788-2.121,1.387-3.258,1.796c-1.136,0.409-2.296,0.532-3.483,0.367
		c-1.186-0.165-2.339-0.748-3.457-1.749c-1.034-0.91-1.776-1.956-2.229-3.138c-0.454-1.181-0.695-2.4-0.728-3.659
		c-0.032-1.258,0.114-2.521,0.436-3.791c0.322-1.271,0.741-2.471,1.257-3.604c1.081-2.439,2.489-4.771,4.229-6.995
		c1.736-2.224,3.642-4.144,5.716-5.764c1.035-0.809,2.269-1.547,3.698-2.214c1.431-0.665,2.886-1.1,4.37-1.302
		c1.482-0.201,2.889-0.074,4.224,0.381c1.331,0.457,2.418,1.423,3.26,2.901c0.418,0.806,0.661,1.605,0.728,2.402
		c0.685-0.819,1.421-1.56,2.213-2.222c0.788-0.662,1.653-1.222,2.593-1.682c0.312-0.168,0.736-0.321,1.27-0.462
		c0.532-0.14,1.087-0.245,1.662-0.317s1.115-0.079,1.622-0.021C298.109,62.123,298.533,62.289,298.88,62.563z M264.533,108.654
		c1.17-0.807,2.156-1.805,2.961-2.995c0.804-1.191,1.531-2.417,2.185-3.678c-1.007-0.292-2.002-0.563-2.987-0.81
		c-0.985-0.248-1.983-0.451-2.993-0.612c-0.879-0.156-1.749-0.17-2.611-0.038c-0.864,0.13-1.644,0.406-2.34,0.828
		c-0.693,0.422-1.261,0.991-1.7,1.707c-0.438,0.715-0.629,1.604-0.569,2.663c0.016,1.059,0.312,1.904,0.89,2.539
		c0.578,0.633,1.283,1.07,2.113,1.314c0.832,0.243,1.702,0.278,2.61,0.105C262.999,109.505,263.813,109.163,264.533,108.654z
		 M280.479,79.786c1.262-2.566,2.585-5.022,3.974-7.366c0.186-0.392,0.354-0.827,0.499-1.31c0.149-0.612,0.222-1.239,0.218-1.879
		c-0.005-0.64-0.11-1.216-0.317-1.729c-0.207-0.512-0.526-0.94-0.957-1.283c-0.432-0.343-1.045-0.524-1.837-0.546
		c-1.324,0.007-2.549,0.437-3.675,1.288s-2.098,1.728-2.917,2.631c-0.909,0.991-1.742,2.026-2.5,3.107
		c-0.758,1.082-1.46,2.188-2.109,3.315c-0.279,0.522-0.688,1.371-1.228,2.546c-0.539,1.177-0.97,2.389-1.291,3.637
		s-0.407,2.394-0.26,3.434s0.791,1.687,1.931,1.938c1.272,0.257,2.503,0.015,3.693-0.725c1.187-0.738,2.213-1.516,3.074-2.33
		c0.406-0.386,0.791-0.772,1.155-1.159c0.363-0.387,0.729-0.817,1.095-1.293c0.273-0.345,0.526-0.713,0.758-1.104
		C280.015,80.567,280.245,80.177,280.479,79.786z" class="JkwFvWUs_8"></path>
	<path stroke="#6CBE45" stroke-width="2" stroke-miterlimit="10" d="M309.854,91.643c-0.372,0.695-0.862,1.289-1.472,1.779
		c-0.608,0.49-1.27,0.858-1.981,1.104c-0.713,0.244-1.455,0.355-2.226,0.335c-0.772-0.021-1.505-0.239-2.198-0.656
		c-1.434-0.789-2.338-1.972-2.714-3.547c-0.376-1.576-0.17-3.059,0.619-4.449c0.743-1.391,1.873-2.362,3.388-2.917
		c1.514-0.554,3.011-0.435,4.489,0.355c1.389,0.789,2.282,1.971,2.681,3.547C310.837,88.771,310.642,90.253,309.854,91.643z
		 M313.574,76.662c-0.457,0.604-0.886,0.979-1.287,1.122c-0.401,0.144-0.731,0.112-0.99-0.093c-0.259-0.206-0.415-0.575-0.466-1.104
		c-0.051-0.531,0.042-1.146,0.282-1.845c1.058-3.19,2.127-6.336,3.204-9.438c1.078-3.102,2.181-5.949,3.312-8.542
		c1.13-2.593,2.292-4.811,3.491-6.652c1.196-1.84,2.467-3.096,3.808-3.765c0.716-0.377,1.473-0.609,2.269-0.698
		c0.797-0.088,1.522-0.024,2.179,0.192c0.654,0.216,1.229,0.607,1.72,1.171c0.492,0.566,0.835,1.313,1.031,2.245
		c0.268,1.418-0.061,2.986-0.99,4.703c-0.931,1.717-2.274,3.675-4.032,5.876c-1.759,2.201-3.812,4.681-6.159,7.438
		C318.598,70.03,316.141,73.159,313.574,76.662z" class="JkwFvWUs_9"></path>
</g>
<path fill="none" stroke="#F1E912" stroke-width="2" stroke-miterlimit="10" d="M355.462,16.332c0,0-3.894,2.004-5.308,2.711
	c-1.415,0.707-3.891,2.122-2.594,3.654c0,0,0.472,1.768,1.061,2.124c0,0,2.122,2.949,4.363,3.302s4.599,0.472,5.07,0.589
	s1.179,0.943,3.418-0.589c0,0,2.357,1.415,2.241,2.357c-0.119,0.943,1.887,0.707,1.887,0.707s2.123,7.31,1.888,8.017
	c0,0-1.063,3.302-0.709,4.481c0,0-2.004,2.829-0.708,6.956c0,0,0.825,8.018,6.485,13.088c0,0,1.886,8.488,2.121,9.902
	c0.236,1.416,0.236,10.73,1.181,13.324c0,0-0.237,6.721-1.77,7.193c-1.532,0.471-3.536,0.824-3.536,1.297
	c0,0.471-2.004,1.768-2.004,1.768l-0.59,1.887l0.47,1.295l2.168,0.828l0.31,0.117l1.179-1.299l0.589,1.299c0,0,0,1.77,0.943,1.77
	s1.768,0,1.768,0h1.063c0,0,0.705,1.297,1.061,1.297c0.354,0,2.122,0,2.122,0s1.533-2.477,1.77-3.303
	c0.233-0.824,1.297-2.941,1.297-2.941s0.707-4.133,1.649-4.486c0.943-0.354,1.65-1.061,1.65-1.061s-0.472-10.021,0.825-18.156
	c0,0,10.612,4.008,16.86,11.906c0,0-3.537,0.943-4.009,1.768c-0.472,0.826-0.118,1.535-0.118,1.535l2.004,0.588
	c0,0,4.719,1.182,5.661,0.473c0,0,2.711,2.83,5.187,3.537c0,0-5.422,0.59-7.072,0.59c-1.652,0-5.779,0.482-6.722,3.307
	c0,0,1.061,2.111,3.536,1.057c0,0-0.943,2.238,1.888,1.414c2.83-0.828,6.956-1.414,6.956-1.414s6.249-1.182,8.137-1.652
	c1.886-0.473,4.243-1.887,4.243-2.357c0-0.473,4.245-1.061,3.653-5.07c0,0,3.658-1.768,4.13-1.65
	c0.471,0.117,3.771,4.953,5.539,4.127c1.769-0.824,0.472-5.305,5.544-6.25c5.068-0.943,10.372-1.768,10.372-1.768
	s-6.601-1.77-16.033,0.824c0,0-3.536-4.008-5.894-4.715c0,0-1.181-2.949-1.534-3.773c-0.354-0.826-1.297-5.66-2.831-8.018
	c-1.532-2.357-10.61-20.398-23.344-29.712c-12.735-9.313-13.678-11.082-14.149-12.144c-0.472-1.061-3.301-3.185-4.597-4.363
	c-1.297-1.179-4.717-6.247-5.188-7.545c-0.472-1.296-2.359-3.182-2.476-4.009c-0.117-0.825-2.005-1.179-2.005-1.179
	s-1.062-2.947-5.423-2.947c-4.362,0-9.171,0.661-12.38,4.953C355.641,13.462,355.462,16.332,355.462,16.332z" class="JkwFvWUs_10"></path>
<style>.JkwFvWUs_0{stroke-dasharray:447 449;stroke-dashoffset:448;animation:JkwFvWUs_draw 3000ms linear 0ms forwards;}.JkwFvWUs_1{stroke-dasharray:270 272;stroke-dashoffset:271;animation:JkwFvWUs_draw 3000ms linear 0ms forwards;}.JkwFvWUs_2{stroke-dasharray:209 211;stroke-dashoffset:210;animation:JkwFvWUs_draw 3000ms linear 0ms forwards;}.JkwFvWUs_3{stroke-dasharray:167 169;stroke-dashoffset:168;animation:JkwFvWUs_draw 3000ms linear 0ms forwards;}.JkwFvWUs_4{stroke-dasharray:396 398;stroke-dashoffset:397;animation:JkwFvWUs_draw 3000ms linear 0ms forwards;}.JkwFvWUs_5{stroke-dasharray:219 221;stroke-dashoffset:220;animation:JkwFvWUs_draw 3000ms linear 0ms forwards;}.JkwFvWUs_6{stroke-dasharray:452 454;stroke-dashoffset:453;animation:JkwFvWUs_draw 3000ms linear 0ms forwards;}.JkwFvWUs_7{stroke-dasharray:180 182;stroke-dashoffset:181;animation:JkwFvWUs_draw 3000ms linear 0ms forwards;}.JkwFvWUs_8{stroke-dasharray:335 337;stroke-dashoffset:336;animation:JkwFvWUs_draw 3000ms linear 0ms forwards;}.JkwFvWUs_9{stroke-dasharray:118 120;stroke-dashoffset:119;animation:JkwFvWUs_draw 3000ms linear 0ms forwards;}.JkwFvWUs_10{stroke-dasharray:420 422;stroke-dashoffset:421;animation:JkwFvWUs_draw 3000ms linear 0ms forwards;}@keyframes JkwFvWUs_draw{100%{stroke-dashoffset:0;}}@keyframes JkwFvWUs_fade{0%{stroke-opacity:1;}94.44444444444444%{stroke-opacity:1;}100%{stroke-opacity:0;}}</style></svg>
